<svg version="1.1" xmlns="http://www.w3.org/2000/svg" xmlns:xlink="http://www.w3.org/1999/xlink" width="100" height="100"><defs/><g><path fill="white" stroke="none" paint-order="stroke fill markers" d=" M 0 0 L 100 0 L 100 100 L 0 100 L 0 0 Z"/><path fill="gold" stroke="none" paint-order="stroke fill markers" d=" M 64.28571428571429 50 L 57.142857142857146 62.37179148263483 L 42.85714285714286 62.37179148263484 L 35.714285714285715 50 L 42.85714285714285 37.62820851736517 L 57.14285714285713 37.62820851736515 L 64.28571428571429 50"/><path fill="lightgray" stroke="none" paint-order="stroke fill markers" d=" M 64.28571428571429 77.14285714285714 L 57.142857142857146 89.51464862549197 L 42.85714285714286 89.51464862549197 L 35.714285714285715 77.14285714285714 L 42.85714285714285 64.7710656602223 L 57.14285714285713 64.77106566022229 L 64.28571428571429 77.14285714285714"/><path fill="lightgray" stroke="none" paint-order="stroke fill markers" d=" M 40.7793104687081 63.571428571428584 L 33.63645332585096 75.94322005406342 L 19.350739040136673 75.94322005406342 L 12.207881897279526 63.571428571428584 L 19.350739040136663 51.19963708879375 L 33.636453325850944 51.199637088793736 L 40.7793104687081 63.571428571428584"/><path fill="lightgray" stroke="none" paint-order="stroke fill markers" d=" M 40.77931046870809 36.42857142857144 L 33.63645332585095 48.80036291120628 L 19.350739040136666 48.80036291120628 L 12.207881897279519 36.42857142857144 L 19.350739040136656 24.0567799459366 L 33.63645332585094 24.056779945936594 L 40.77931046870809 36.42857142857144"/><path fill="lightgray" stroke="none" paint-order="stroke fill markers" d=" M 64.28571428571428 22.857142857142858 L 57.14285714285714 35.228934339777695 L 42.857142857142854 35.228934339777695 L 35.71428571428571 22.857142857142858 L 42.85714285714285 10.48535137450802 L 57.142857142857125 10.485351374508014 L 64.28571428571428 22.857142857142854"/><path fill="lightgray" stroke="none" paint-order="stroke fill markers" d=" M 87.79211810272048 36.428571428571416 L 80.64926095986333 48.80036291120625 L 66.36354667414905 48.80036291120626 L 59.2206895312919 36.428571428571416 L 66.36354667414903 24.05677994593658 L 80.64926095986333 24.056779945936572 L 87.79211810272048 36.428571428571416"/><path fill="lightgray" stroke="none" paint-order="stroke fill markers" d=" M 87.79211810272048 63.57142857142857 L 80.64926095986333 75.9432200540634 L 66.36354667414905 75.9432200540634 L 59.2206895312919 63.57142857142857 L 66.36354667414903 51.199637088793736 L 80.64926095986333 51.19963708879372 L 87.79211810272048 63.57142857142857"/></g></svg>