<svg version="1.1" xmlns="http://www.w3.org/2000/svg" xmlns:xlink="http://www.w3.org/1999/xlink" width="100" height="100"><defs/><g><path fill="gold" stroke="none" paint-order="stroke fill markers" d=" M 68.05461521101331 50 L 59.027307605506664 65.63575542829048 L 40.97269239449334 65.63575542829048 L 31.945384788986683 50 L 40.972692394493336 34.36424457170953 L 59.02730760550665 34.36424457170952 L 68.05461521101331 49.99999999999999"/><path fill="lightgray" stroke="none" paint-order="stroke fill markers" d=" M 68.05461521101331 84.30376890092529 L 59.027307605506664 99.93952432921577 L 40.97269239449334 99.93952432921577 L 31.945384788986683 84.30376890092529 L 40.972692394493336 68.66801347263481 L 59.02730760550665 68.66801347263481 L 68.05461521101331 84.30376890092529"/><path fill="lightgray" stroke="none" paint-order="stroke fill markers" d=" M 38.346679897261424 67.15188445046266 L 29.319372291754764 82.78763987875314 L 11.264757080741449 82.78763987875314 L 2.2374494752347864 67.15188445046266 L 11.264757080741436 51.51612902217219 L 29.31937229175475 51.51612902217218 L 38.346679897261424 67.15188445046266"/><path fill="lightgray" stroke="none" paint-order="stroke fill markers" d=" M 38.34667989726141 32.84811554953736 L 29.319372291754753 48.483870977827834 L 11.264757080741438 48.483870977827834 L 2.2374494752347758 32.84811554953736 L 11.264757080741425 17.21236012124689 L 29.31937229175474 17.212360121246878 L 38.34667989726141 32.848115549537354"/><path fill="lightgray" stroke="none" paint-order="stroke fill markers" d=" M 68.05461521101331 15.696231099074701 L 59.02730760550665 31.331986527365174 L 40.972692394493336 31.331986527365178 L 31.945384788986676 15.696231099074703 L 40.97269239449332 0.06047567078422844 L 59.027307605506635 0.06047567078421778 L 68.05461521101331 15.696231099074698"/><path fill="lightgray" stroke="none" paint-order="stroke fill markers" d=" M 97.7625505247652 32.84811554953734 L 88.73524291925855 48.48387097782781 L 70.68062770824524 48.48387097782782 L 61.653320102738576 32.84811554953734 L 70.68062770824523 17.212360121246867 L 88.73524291925854 17.212360121246856 L 97.7625505247652 32.84811554953733"/><path fill="lightgray" stroke="none" paint-order="stroke fill markers" d=" M 97.76255052476522 67.15188445046265 L 88.73524291925857 82.78763987875313 L 70.68062770824525 82.78763987875313 L 61.65332010273859 67.15188445046265 L 70.68062770824524 51.51612902217217 L 88.73524291925855 51.516129022172166 L 97.76255052476522 67.15188445046265"/></g></svg>